<svg width="139" height="139" viewBox="0 0 139 139" fill="none" xmlns="http://www.w3.org/2000/svg">
<path d="M139 69.5891C139 68.7684 138.363 68.0367 137.542 68.0367L79.9535 63.4751L92.7303 48.5177C93.2778 47.8815 93.1887 46.9654 92.6412 46.3291C92.0046 45.7819 91.0879 45.6929 90.5403 46.24L75.6625 59.0087L71.0979 1.45692C71.0088 0.636205 70.3658 0 69.5446 0C68.7233 0 67.9912 0.636205 67.9912 1.45692L63.4266 59.0087L48.4597 46.24C47.8231 45.6929 46.9064 45.7819 46.3588 46.3291C45.8113 46.9653 45.7222 47.8814 46.2697 48.5177L59.0465 63.4751L1.45786 68.0367C0.636613 68.1258 0 68.7684 0 69.5891C0 70.4098 0.636613 71.1414 1.45786 71.1414L59.0465 75.7031L46.2697 90.5713C45.7222 91.2076 45.8113 92.1237 46.3588 92.6709C46.9063 93.3071 47.9122 93.3071 48.4597 92.76L63.4266 79.9913L67.9912 137.543C68.0804 138.364 68.7233 139 69.5446 139C70.3658 139 71.0979 138.364 71.0979 137.543L75.6625 79.9913L90.5403 92.76C91.1769 93.3071 92.0936 93.3071 92.6412 92.6709C93.1887 92.1238 93.2778 91.1186 92.7303 90.5713L79.9535 75.7031L137.542 71.1414C138.357 71.0524 139 70.4098 139 69.5891V69.5891ZM76.6622 72.7828C76.0256 72.8719 75.5672 73.2409 75.2935 73.788C75.1089 74.3352 75.2044 74.9714 75.5672 75.4294L77.2988 77.4336L75.2934 75.7031C74.8351 75.3404 74.1985 75.245 73.651 75.4295C73.1035 75.614 72.7406 76.1611 72.6451 76.7973L69.4494 117.388L66.2536 76.7973C66.2536 76.1611 65.7952 75.703 65.2477 75.4295C65.0631 75.3404 64.8849 75.3404 64.6111 75.3404C64.2482 75.3404 63.879 75.4295 63.6053 75.7031L61.5999 77.4336L63.3315 75.4294C63.6943 74.9714 63.7898 74.3352 63.6052 73.788C63.3315 73.2409 62.8731 72.8783 62.2365 72.7828L21.62 69.5891L62.2365 66.3954C62.8731 66.3063 63.3315 65.9373 63.6052 65.3901C63.879 64.843 63.6943 64.2068 63.3315 63.7487L61.5999 61.7446L63.6053 63.4751C64.0636 63.8378 64.7002 64.0223 65.2477 63.7487C65.7952 63.5642 66.1581 63.017 66.2536 62.3808L69.4494 21.7904L72.6451 62.3808C72.6451 63.017 73.1035 63.4751 73.651 63.7487C74.1985 64.0223 74.8351 63.8378 75.2934 63.4751L77.2988 61.7446L75.5672 63.7487C75.2044 64.2068 75.1089 64.843 75.2935 65.3901C75.4781 65.9373 76.0256 66.2999 76.6622 66.3954L117.368 69.5891L76.6622 72.7828Z" fill="black"/>
</svg>
