<?xml version="1.0" encoding="utf-8"?>
<!-- Generator: Adobe Illustrator 22.0.0, SVG Export Plug-In . SVG Version: 6.00 Build 0)  -->
<svg version="1.1" id="Layer_1" xmlns="http://www.w3.org/2000/svg" xmlns:xlink="http://www.w3.org/1999/xlink" x="0px" y="0px"
	 viewBox="0 0 64 80" style="enable-background:new 0 0 64 80;" xml:space="preserve">
<style type="text/css">
	.st0{fill:#F9F9F9;}
	.st1{fill:#FE5F56;}
</style>
<rect x="19.6" y="28.3" class="st0" width="23.2" height="23.5"/>
<g>
	<path class="st1" d="M49.3,22H14.7c-0.4,0-0.7,0.3-0.7,0.7v34.6c0,0.4,0.3,0.7,0.7,0.7h34.6c0.4,0,0.7-0.3,0.7-0.7V22.7
		C50,22.3,49.7,22,49.3,22z M42.1,40.7H23.7l6,6c0.3,0.3,0.3,0.7,0,1c-0.1,0.1-0.3,0.2-0.5,0.2s-0.4-0.1-0.5-0.2l-7.2-7.2
		c-0.3-0.3-0.3-0.7,0-1l7.2-7.2c0.3-0.3,0.7-0.3,1,0c0.3,0.3,0.3,0.7,0,1l-6,6h18.4c0.4,0,0.7,0.3,0.7,0.7
		C42.8,40.4,42.5,40.7,42.1,40.7z"/>
</g>
</svg>
