<?xml version="1.0" encoding="utf-8"?>
<!-- Generator: Adobe Illustrator 22.0.0, SVG Export Plug-In . SVG Version: 6.00 Build 0)  -->
<svg version="1.1" id="Layer_1" xmlns="http://www.w3.org/2000/svg" xmlns:xlink="http://www.w3.org/1999/xlink" x="0px" y="0px"
	 viewBox="0 0 1909 1080" style="enable-background:new 0 0 1909 1080;" xml:space="preserve">
<style type="text/css">
	.st0{fill:#FE5F56;}
	.st1{opacity:0.45;fill:#FE5F56;enable-background:new    ;}
</style>
<circle class="st0" cx="1532.7" cy="527.9" r="233.7"/>
<g>
	<polygon points="1770.9,408.5 1768.3,408.5 1718.6,585.9 1718.6,595.3 	"/>
	<polygon points="1763.6,408.5 1760.9,408.5 1718.6,559.6 1718.6,569 	"/>
	<polygon points="1785.7,408.5 1783,408.5 1718.6,638.6 1718.6,648 	"/>
	<polygon points="1756.2,408.5 1753.5,408.5 1718.6,533.2 1718.6,542.7 	"/>
	<polygon points="1793.1,408.5 1790.4,408.5 1718.6,664.9 1718.6,674.3 	"/>
	<polygon points="1778.3,408.5 1775.7,408.5 1718.6,612.2 1718.6,621.7 	"/>
	<polygon points="1748.8,408.5 1746.2,408.5 1718.6,506.9 1718.6,516.3 	"/>
	<polygon points="1726.7,408.5 1724.1,408.5 1718.6,427.9 1718.6,437.3 	"/>
	<polygon points="1734.1,408.5 1731.4,408.5 1718.6,454.2 1718.6,463.6 	"/>
	<polygon points="1741.4,408.5 1738.8,408.5 1718.6,480.6 1718.6,490 	"/>
	<polygon points="1796,503.3 1796,493.8 1742.5,684.9 1745.2,684.9 	"/>
	<polygon points="1796,424.3 1796,414.8 1720.4,684.9 1723,684.9 	"/>
	<polygon points="1796,634.9 1796,625.5 1779.4,684.9 1782,684.9 	"/>
	<polygon points="1796,582.3 1796,572.9 1764.6,684.9 1767.3,684.9 	"/>
	<polygon points="1796,661.3 1796,651.9 1786.8,684.9 1789.4,684.9 	"/>
	<polygon points="1796,608.6 1796,599.2 1772,684.9 1774.7,684.9 	"/>
	<polygon points="1796,555.9 1796,546.5 1757.3,684.9 1759.9,684.9 	"/>
	<polygon points="1796,476.9 1796,467.5 1735.1,684.9 1737.8,684.9 	"/>
	<polygon points="1796,450.6 1796,441.2 1727.8,684.9 1730.4,684.9 	"/>
	<polygon points="1796,529.6 1796,520.2 1749.9,684.9 1752.5,684.9 	"/>
</g>
<g>
	<g>
		<polygon points="1527.8,364.9 1539.3,354.6 1535.9,353.7 1513.6,373.9 		"/>
		<polygon points="1469.1,402 1525.4,351.7 1522.2,350.6 1455,411 		"/>
		<polygon points="1410.7,439.2 1511.7,348.3 1508.3,347.7 1396.2,448.5 		"/>
		<polygon points="1352,476.6 1497.9,345.4 1494.5,344.6 1337.9,485.6 		"/>
		<polygon points="1484.1,342.3 1480.7,341.7 1279.1,522.9 1294,513.7 		"/>
		<polygon points="1467.2,338.5 1274.7,511.4 1274,516.2 1471,339 		"/>
		<polygon points="1453.8,335.5 1277.4,493.9 1276.5,498.2 1457.2,336.2 		"/>
		<polygon points="1439.9,332.5 1280.1,476.1 1279.5,480.3 1443.3,333.1 		"/>
		<polygon points="1426.1,329.3 1282.8,458.3 1282.2,462.6 1429.5,330.2 		"/>
		<polygon points="1412.3,326.5 1285.5,440.3 1284.6,444.9 1415.7,327.1 		"/>
		<polygon points="1398.6,323.3 1288.2,422.5 1287.7,427 1401.9,324.2 		"/>
		<polygon points="1385,320.4 1290.9,404.7 1290.3,409.2 1388.4,321 		"/>
		<polygon points="1371.3,317 1293.6,387 1292.7,391.5 1374.6,318.1 		"/>
		<polygon points="1357.5,314.1 1296.4,369.1 1295.8,373.4 1361.1,314.9 		"/>
		<polygon points="1344,310.9 1299.1,351.4 1298.5,355.6 1347.3,311.8 		"/>
		<polygon points="1330.2,307.8 1301.8,333.6 1300.9,337.9 1333.5,308.9 		"/>
		<polygon points="1316.4,304.9 1304.6,315.5 1303.9,320.3 1319.8,305.5 		"/>
	</g>
</g>
<rect x="1416.6" y="129.7" transform="matrix(0.3765 -0.9264 0.9264 0.3765 422.0968 1672.9952)" class="st1" width="74.8" height="786.5"/>
</svg>
