<?xml version="1.0" encoding="utf-8"?>
<!-- Generator: Adobe Illustrator 22.0.0, SVG Export Plug-In . SVG Version: 6.00 Build 0)  -->
<svg version="1.1" id="Layer_1" xmlns="http://www.w3.org/2000/svg" xmlns:xlink="http://www.w3.org/1999/xlink" x="0px" y="0px"
	 viewBox="0 0 4889.4 2923.3" style="enable-background:new 0 0 4889.4 2923.3;" xml:space="preserve">
<style type="text/css">
	.st0{fill:#FFC22A;}
</style>
<g>
	<g>
		<path d="M1731.9,269.5h-244.6c-17.7-28.2-51.3-46.1-99.4-46.1c-89.9,0-140,63.8-140,162c0,115.1,52.3,172.4,166.2,172.4
			c52.3,0,95.2-18.9,129.5-64.8h-184.9V328.9h377.4v232c-51.3,88.9-155.7,200.7-347,200.7c-233.2,0-376.3-155.7-376.3-376.3
			S1155.1,9.1,1387.1,9.1C1583.5,9.4,1710,111.8,1731.9,269.5z"/>
		<path d="M1819.7,16.6h232v739.9h-232V16.6L1819.7,16.6z"/>
		<path d="M2654.8,16.6h246.6l-248.7,740h-300L2104,16.6h246.6l152.7,509L2654.8,16.6z"/>
		<path d="M3447.1,201.8h-261.4v90.9h230v174.7h-230V572h261.4v185h-493.3V16.6h493.3V201.8z"/>
		<path d="M3712.5,16.6h232v739.9h-232V16.6L3712.5,16.6z"/>
		<path d="M4007.2,16.6h622.9v183.9h-196.5v556.1h-232V200.7h-194.4L4007.2,16.6L4007.2,16.6z"/>
		<path d="M1042.3,1081.8h240v433.4c0,66.3,26.1,115.2,98.9,115.2s102-48.9,102-115.2v-433.4h240v433.4
			c0,227-155.3,343.3-347.7,343.3S1042,1742.3,1042,1515.2v-433.4L1042.3,1081.8L1042.3,1081.8z"/>
		<path d="M2164.1,1606.4h-95.5v244.4h-241.1v-768.9h336.8c193.4,0,292.3,108.7,292.3,264C2456.4,1488,2357.5,1606.4,2164.1,1606.4z
			 M2136.9,1416.3c54.3,0,74.9-28.2,74.9-70.7s-20.7-70.7-74.9-70.7h-68.4V1416h68.4V1416.3z"/>
		<path d="M3059.1,1731.4h-339.9v-201.1l323.6-461.6h259.6v454.1h78.2v208.6h-78.2V1851h-243.3L3059.1,1731.4L3059.1,1731.4z
			 M3078.8,1522.7v-179.2l-117.3,179.2H3078.8z"/>
		<path d="M1383.2,2671.3h-95.5v244.4h-241.2v-768.9h336.8c193.4,0,292.3,108.7,292.3,263.9
			C1675.5,2552.9,1576.6,2671.3,1383.2,2671.3z M1356.1,2481.2c54.3,0,74.9-28.2,74.9-70.7c0-42.4-20.7-70.7-74.9-70.7h-68.4V2481
			h68.4V2481.2z"/>
		<path d="M2264,2338.9h-271.6v94.5h239v181.5h-239v108.7H2264v192.3h-512.6V2147H2264V2338.9z"/>
		<path d="M2848.4,2799.4h-256.3l-38,116.2h-253.2l281.4-768.9h278.1l280.2,768.9h-254.2L2848.4,2799.4z M2720.2,2404.1l-69.6,213.9
			h139L2720.2,2404.1z"/>
		<path d="M3553.3,2139c203.2,0,341,121.7,372.6,303.1h-254.2c-22.8-51-68.4-80.3-122.7-80.3c-81.5,0-131.5,66.3-131.5,168.3
			s50,168.3,131.5,168.3c54.3,0,99.9-29.3,122.7-80.3h254.2c-31.6,181.5-169.5,303.1-372.6,303.1c-235.6,0-380.1-161.8-380.1-391
			C3173.3,2301.2,3317.5,2139,3553.3,2139z"/>
		<path d="M4525.3,2338.9h-271.6v94.5h239v181.5h-239v108.7h271.6v192.3h-512.6V2147h512.6V2338.9L4525.3,2338.9z"/>
	</g>
	<g>
		<path class="st0" d="M500.6,573.1H311.7l-37.5,168.3H137.1l37.5-168.3h-157V449.5h185L236.8,297H81.1V173.5h183.7L301.3,9.2h137.1
			l-36.5,164.2h188.9L627.3,9.2h138.1l-36.5,164.2h132.9V297H700.9l-34.2,152.5h131.9v123.6H638.7l-37.5,168.3H463.1L500.6,573.1z
			 M562.8,297H373.9l-34.2,152.5h188.9L562.8,297z"/>
	</g>
</g>
</svg>
